<svg id="Layer_1" data-name="Layer 1" xmlns="http://www.w3.org/2000/svg" viewBox="0 0 512 512"><defs><style>.cls-1{fill:#3eb38a;}.cls-2{fill:#ffcf99;}.cls-3{fill:#d39f75;}.cls-4{fill:#dae2f2;}.cls-5{opacity:0.04;}</style></defs><title>users-chat-bubble-flat</title><path class="cls-1" d="M328.2,190.36v52.51A72.25,72.25,0,0,1,256,315.08H179.92l-50.54,50.61a6.61,6.61,0,0,1-4.66,1.9,5.5,5.5,0,0,1-2.49-.53,6.48,6.48,0,0,1-4.07-6V312.32a72.41,72.41,0,0,1-52.51-69.45V190.36a72.25,72.25,0,0,1,72.21-72.21H256A72.25,72.25,0,0,1,328.2,190.36Z"/><path class="cls-2" d="M459.48,72.21V151A72.41,72.41,0,0,1,407,220.42v48.71a6.48,6.48,0,0,1-4.07,6,5.5,5.5,0,0,1-2.49.53,6.61,6.61,0,0,1-4.66-1.9L345.2,223.18H229.74A72.25,72.25,0,0,1,157.54,151V72.21A72.25,72.25,0,0,1,229.74,0H387.28A72.25,72.25,0,0,1,459.48,72.21Z"/><path class="cls-3" d="M374.15,91.9H242.87a6.56,6.56,0,1,1,0-13.13H374.15a6.56,6.56,0,0,1,0,13.13Z"/><path class="cls-3" d="M282.25,144.41H242.87a6.56,6.56,0,1,1,0-13.13h39.38a6.56,6.56,0,0,1,0,13.13Z"/><path class="cls-4" d="M510.55,477.68c-9.08-25.41-29.82-44.63-55.28-53a52.51,52.51,0,1,0-57.21,0c-25.46,8.35-46.21,27.58-55.28,53A24.63,24.63,0,0,0,346,500.42,27.59,27.59,0,0,0,368.57,512H484.75a27.59,27.59,0,0,0,22.58-11.58A24.64,24.64,0,0,0,510.55,477.68Z"/><path class="cls-4" d="M114.67,503.34A20.6,20.6,0,0,1,97.8,512H20.35a20.6,20.6,0,0,1-16.87-8.66A18.61,18.61,0,0,1,1.11,486.2a59.87,59.87,0,0,1,35.51-35.71,32.82,32.82,0,1,1,44.9,0A59.87,59.87,0,0,1,117,486.2,18.61,18.61,0,0,1,114.67,503.34Z"/><g class="cls-5"><path d="M507.32,500.45A27.62,27.62,0,0,1,484.74,512H426.65V328.21a52.48,52.48,0,0,1,28.62,96.49c25.47,8.34,46.21,27.57,55.27,53A24.65,24.65,0,0,1,507.32,500.45Z"/></g><g class="cls-5"><path d="M114.67,503.34A20.6,20.6,0,0,1,97.8,512H59.07V393.85a32.74,32.74,0,0,1,22.45,56.65A59.87,59.87,0,0,1,117,486.2,18.61,18.61,0,0,1,114.67,503.34Z"/></g></svg>